<?xml version="1.0" encoding="iso-8859-1"?>
<!DOCTYPE svg PUBLIC "-//W3C//DTD SVG 1.1//EN" "http://www.w3.org/Graphics/SVG/1.1/DTD/svg11.dtd">
<svg xmlns="http://www.w3.org/2000/svg" xmlns:xlink="http://www.w3.org/1999/xlink" version="1.1" id="Capa_1" x="0px" y="0px" width="512px" height="512px" viewBox="0 0 612 612" style="enable-background:new 0 0 612 612;" xml:space="preserve">
<g>
	<g id="_x31__32_">
		<g>
			<path d="M306,0C136.992,0,0,136.992,0,306s136.992,306,306,306s306-136.992,306-306S475.008,0,306,0z M428.266,199.55     c0,0-134.984,235.104-137.317,237.284c-7.708,7.229-19.813,6.828-27.024-0.88l-87.439-80.649     c-7.229-7.708-6.828-19.813,0.88-27.043c7.708-7.21,19.813-6.828,27.023,0.88l68.429,63.112l122.304-211.848     c5.279-9.142,16.983-12.278,26.125-7C430.408,178.704,433.545,190.409,428.266,199.55z" fill="#999"/>
		</g>
	</g>
</g>
</svg>
