<?xml version="1.0" encoding="iso-8859-1"?>
<!-- Generator: Adobe Illustrator 18.0.0, SVG Export Plug-In . SVG Version: 6.00 Build 0)  -->
<!DOCTYPE svg PUBLIC "-//W3C//DTD SVG 1.1//EN" "http://www.w3.org/Graphics/SVG/1.1/DTD/svg11.dtd">
<svg xmlns="http://www.w3.org/2000/svg" xmlns:xlink="http://www.w3.org/1999/xlink" version="1.1" id="Capa_1" x="0px" y="0px" viewBox="0 0 495.705 495.705" style="enable-background:new 0 0 495.705 495.705;" xml:space="preserve" width="512px" height="512px">
<g>
	<path d="M285.452,483.396c-3.752,0-7.502-0.495-11.154-1.478c-11.041-2.979-20.279-10.073-26.027-19.988l-0.209-0.389H52.559   c-8.297,0-15.053-6.754-15.053-15.049V49.212c0-8.295,6.756-15.049,15.053-15.049h276.017c8.313,0,15.066,6.754,15.066,15.049   v166.431c1.686-0.201,3.344-0.502,5.064-0.502h29.098V49.212C377.805,22.072,355.723,0,328.577,0H52.559   C25.428,0,3.348,22.072,3.348,49.212v397.28c0,27.139,22.08,49.213,49.211,49.213h257.637c-2.582-5.309-4.205-11.189-4.4-17.449   C299.561,481.625,292.565,483.396,285.452,483.396z" fill="#1d0b71"/>
	<path d="M111.512,145.632H222.52c9.449,0,17.08-7.646,17.08-17.082c0-9.433-7.631-17.078-17.08-17.078H111.512   c-9.449,0-17.082,7.646-17.082,17.078C94.43,137.986,102.063,145.632,111.512,145.632z" fill="#1d0b71"/>
	<path d="M273.762,213.944c0-9.432-7.647-17.078-17.08-17.078h-145.17c-9.449,0-17.082,7.646-17.082,17.078   c0,9.436,7.633,17.083,17.082,17.083h145.17C266.116,231.027,273.762,223.381,273.762,213.944z" fill="#1d0b71"/>
	<path d="M111.512,282.262c-9.449,0-17.082,7.646-17.082,17.078c0,9.436,7.633,17.082,17.082,17.082h112.615   c0.846-2.338,1.834-4.654,3.115-6.877l15.768-27.283H111.512z" fill="#1d0b71"/>
	<path d="M94.43,384.734c0,9.437,7.633,17.082,17.082,17.082h110.082c0.73-13.557,7.809-26.498,20.053-34.152H111.512   C102.063,367.664,94.43,375.313,94.43,384.734z" fill="#1d0b71"/>
	<path d="M369.751,322.096c-25.068,0-45.478,20.379-45.478,45.432c0,25.051,20.41,45.436,45.478,45.436   c25.039,0,45.412-20.386,45.412-45.436C415.163,342.475,394.79,322.096,369.751,322.096z" fill="#1d0b71"/>
	<path d="M483.682,389.046l-15.896-9.179c0.537-4.094,1.266-8.111,1.266-12.34c0-4.23-0.729-8.258-1.266-12.352l15.896-9.18   c3.963-2.299,6.883-6.074,8.088-10.512c1.184-4.424,0.565-9.159-1.758-13.135l-21.025-36.402c-3.184-5.561-9.012-8.67-15.004-8.67   c-2.922,0-5.906,0.754-8.652,2.33l-15.764,9.115c-6.641-5.051-13.719-9.547-21.498-12.809v-17.847   c0-9.563-7.746-17.308-17.309-17.308h-42.053c-9.576,0-17.307,7.745-17.307,17.308v17.847c-7.809,3.262-14.858,7.758-21.48,12.809   l-15.816-9.127c-2.658-1.533-5.648-2.328-8.652-2.328c-1.492,0-3.02,0.194-4.482,0.594c-4.43,1.191-8.213,4.082-10.52,8.069   l-21.025,36.419c-4.773,8.28-1.93,18.875,6.332,23.646l15.893,9.18c-0.502,4.094-1.232,8.121-1.232,12.352   c0,4.228,0.73,8.246,1.232,12.328l-15.893,9.184c-8.262,4.779-11.105,15.367-6.332,23.648l21.025,36.435   c2.307,3.975,6.09,6.865,10.52,8.059c1.48,0.4,2.99,0.595,4.482,0.595c3.02,0,6.01-0.778,8.652-2.331l15.816-9.107   c6.623,5.051,13.672,9.539,21.48,12.818v17.827c0,9.561,7.73,17.307,17.307,17.307h42.053c9.563,0,17.309-7.745,17.309-17.307   v-17.827c7.795-3.279,14.857-7.768,21.498-12.818l15.764,9.107c2.664,1.553,5.65,2.331,8.67,2.331c1.51,0,3.002-0.194,4.498-0.595   c4.414-1.193,8.215-4.084,10.488-8.059l21.025-36.43C494.803,404.422,491.964,393.83,483.682,389.046z M369.751,430.035   c-34.502,0-62.539-28.041-62.539-62.508c0-34.473,28.037-62.514,62.539-62.514c34.455,0,62.496,28.041,62.496,62.514   C432.247,401.994,404.206,430.035,369.751,430.035z" fill="#1d0b71"/>
</g>
</svg>
