<?xml version="1.0" encoding="iso-8859-1"?>
<!-- Generator: Adobe Illustrator 18.0.0, SVG Export Plug-In . SVG Version: 6.00 Build 0)  -->
<!DOCTYPE svg PUBLIC "-//W3C//DTD SVG 1.1//EN" "http://www.w3.org/Graphics/SVG/1.1/DTD/svg11.dtd">
<svg xmlns="http://www.w3.org/2000/svg" xmlns:xlink="http://www.w3.org/1999/xlink" version="1.1" id="Capa_1" x="0px" y="0px" viewBox="0 0 330 330" style="enable-background:new 0 0 330 330;" xml:space="preserve" width="512px" height="512px">
<g>
	<path d="M245.608,84.392c-5.856-5.857-15.355-5.858-21.213-0.001c-5.857,5.858-5.858,15.355,0,21.213L268.789,150H85.002   c-8.284,0-15,6.716-15,15s6.716,15,15,15h183.785l-44.392,44.392c-5.858,5.858-5.858,15.355,0,21.213   c2.929,2.929,6.768,4.393,10.607,4.393c3.839,0,7.678-1.464,10.606-4.393l69.998-69.998c5.858-5.857,5.858-15.355,0-21.213   L245.608,84.392z" fill="#1d0b71"/>
	<path d="M155,330c8.284,0,15-6.716,15-15s-6.716-15-15-15H40V30h115c8.284,0,15-6.716,15-15s-6.716-15-15-15H25   c-8.284,0-15,6.716-15,15v300c0,8.284,6.716,15,15,15H155z" fill="#1d0b71"/>
</g>
</svg>
